<svg xmlns="http://www.w3.org/2000/svg" viewBox="0 0 120 27"><path fill="#FFF" d="M59.532 1.627l-5.335 24.992h-6.459l5.336-24.992h6.458zM86.715 17.8l3.426-9.379 1.966 9.38h-5.392zm7.245 8.818h5.953L94.69 1.627h-5.504c-1.235 0-2.302.73-2.752 1.853l-9.716 23.139h6.796l1.348-3.707h8.312l.786 3.707zm-16.905-8.144c.056-6.57-9.098-6.964-9.042-9.884 0-.899.899-1.854 2.752-2.078.899-.113 3.482-.225 6.346 1.123l1.124-5.28c-1.573-.561-3.539-1.123-6.066-1.123-6.402 0-10.895 3.37-10.895 8.256-.057 3.595 3.2 5.617 5.672 6.796 2.527 1.236 3.37 2.022 3.37 3.089 0 1.685-2.022 2.415-3.875 2.471-3.258.056-5.111-.898-6.628-1.572l-1.18 5.503c1.517.674 4.325 1.292 7.19 1.348 6.795-.112 11.232-3.482 11.232-8.649M50.322 1.627L39.876 26.619h-6.852L27.857 6.68c-.337-1.235-.562-1.685-1.517-2.19-1.572-.843-4.1-1.629-6.346-2.134l.168-.73H31.17c1.404 0 2.64.954 2.977 2.527l2.696 14.434 6.74-17.018h6.739"/></svg>